<svg
    viewBox="0 0 512 512"
    width="512"
    height="512"
    fill="currentColor">
    <g fill="None" fill-opacity="0.0" stroke-opacity="0.00" stroke-width="0.3">
        <path
            d="
M 0.00 512.00 
L 512.00 512.00
L 512.00 0.00
L 0.00 0.00
L 0.00 512.00
M 450.00 16.00 
C 458.35 19.86 462.43 27.75 467.75 35.25 C 473.07 42.74 475.30 52.58 477.99 62.01 C 480.69 71.44 482.85 83.10 483.00 94.00 C 483.15 104.90 483.32 120.17 482.00 131.00 C 480.68 141.83 479.25 152.56 477.02 163.02 C 474.80 173.48 473.55 182.98 470.07 193.07 C 466.59 203.17 452.64 192.80 444.33 191.67 C 436.01 190.55 424.05 182.94 416.00 184.00
C 423.59 189.89 432.52 196.92 439.25 203.75 C 445.98 210.58 459.64 215.69 456.07 226.07 C 452.51 236.46 448.86 248.58 444.69 258.69 C 440.52 268.81 437.25 279.76 432.23 289.23 C 427.21 298.70 424.99 310.21 418.70 318.70 C 412.40 327.18 411.23 340.12 402.70 346.70 C 394.16 353.28 375.43 345.33 364.00 347.00 C 352.57 348.67 335.12 341.91 324.00 345.00
C 334.16 350.46 348.39 356.04 358.08 361.92 C 367.76 367.80 387.69 372.31 381.69 384.69 C 375.70 397.08 370.01 405.78 360.75 415.75 C 351.50 425.72 343.91 431.85 331.92 437.92 C 319.94 444.00 303.31 447.19 289.00 446.00 C 274.69 444.81 260.22 441.96 248.00 435.00
C 244.94 437.04 241.01 439.17 237.92 440.92 C 234.83 442.67 229.55 445.83 226.32 446.32 C 223.09 446.82 216.95 452.94 214.00 451.00
C 215.75 459.75 219.91 474.27 219.00 483.00 C 218.09 491.74 199.50 490.11 195.00 496.00
C 195.08 482.06 192.59 468.78 192.00 455.00
C 188.83 455.28 185.18 455.25 182.00 455.00
C 170.21 454.06 157.32 450.17 146.92 445.08 C 136.53 439.98 128.19 434.17 119.75 426.25 C 111.31 418.33 104.83 410.78 98.70 401.30 C 92.56 391.82 86.78 382.16 82.68 371.32 C 78.58 360.49 72.51 349.51 70.22 337.78 C 67.94 326.05 62.65 312.07 62.01 299.99 C 61.36 287.91 79.79 286.21 88.08 280.08 C 96.36 273.94 109.90 270.01 119.00 265.00
C 108.25 262.61 91.91 263.57 81.00 262.00 C 70.09 260.43 50.70 265.74 49.00 253.00 C 47.30 240.26 45.79 227.20 45.00 215.00 C 44.21 202.80 40.95 189.26 41.01 177.99 C 41.06 166.72 34.53 151.24 40.75 142.75 C 46.98 134.27 59.93 134.42 66.00 126.00
C 56.03 123.03 50.41 118.63 39.93 116.07 C 29.45 113.52 27.17 103.43 27.02 92.98 C 26.87 82.52 25.19 68.72 26.00 58.00 C 26.81 47.28 27.31 37.11 32.00 28.00
C 33.86 23.03 33.58 22.49 39.00 21.00
C 50.07 17.96 64.21 19.10 74.68 22.32 C 85.14 25.55 94.14 29.53 103.23 34.77 C 112.31 40.01 119.78 45.94 127.75 52.25 C 135.71 58.56 141.55 65.11 148.75 72.25 C 155.95 79.38 162.12 85.80 168.25 93.75 C 174.37 101.71 181.03 108.69 186.75 117.25 C 192.48 125.81 176.49 131.50 169.75 136.75 C 163.02 142.01 151.48 148.16 144.00 153.00
C 162.20 152.50 181.76 145.86 201.00 145.00
C 216.12 169.30 229.79 195.34 244.00 220.00
C 250.61 202.96 264.85 212.43 276.23 217.77 C 287.60 223.11 301.34 227.96 313.00 233.00
C 308.80 223.54 296.40 213.66 292.25 204.75 C 288.10 195.84 270.37 184.05 276.26 174.26 C 282.15 164.46 293.85 158.20 301.25 149.25 C 308.64 140.30 317.36 133.30 325.75 124.75 C 334.15 116.21 340.98 108.61 349.75 99.75 C 358.52 90.89 376.32 104.61 387.00 105.00
C 386.92 93.42 370.51 74.97 378.25 64.25 C 386.00 53.54 396.54 46.65 405.75 37.75 C 414.96 28.85 427.32 21.49 439.00 17.00
C 442.61 15.75 445.85 14.08 450.00 16.00 Z" />
    </g>
    <g fill="None" fill-opacity="0.0"  stroke-opacity="0.99" stroke-width="0.3">
        <path
            d="
M 439.00 17.00 
C 442.93 19.31 435.17 30.08 434.23 34.23 C 433.29 38.38 429.75 46.72 427.69 51.69 C 425.64 56.67 422.98 64.32 420.69 69.69 C 418.41 75.06 415.73 81.04 413.68 86.68 C 411.63 92.32 408.32 97.51 406.23 103.23 C 404.14 108.95 401.13 115.09 398.70 120.69 C 396.26 126.30 393.48 131.48 391.08 137.08 C 388.67 142.67 386.09 147.78 383.23 153.23 C 380.37 158.68 377.78 164.68 375.22 170.22 C 372.67 175.77 370.10 180.61 367.08 186.08 C 364.06 191.54 361.81 197.10 358.69 202.70 C 355.58 208.29 353.25 212.02 350.08 218.08 C 346.92 224.14 344.99 226.26 341.25 233.25 C 337.50 240.23 337.23 240.46 332.23 249.23 C 327.22 258.00 319.50 270.59 314.23 279.23 C 308.96 287.87 308.64 287.65 304.25 294.25 C 299.85 300.85 298.82 303.15 294.75 308.75 C 290.68 314.34 289.17 318.68 284.00 323.00
C 287.06 331.94 288.42 340.63 290.00 350.00
C 294.27 346.09 297.11 341.39 300.75 336.75 C 304.39 332.11 307.05 326.48 310.77 321.77 C 314.49 317.06 317.66 311.94 320.92 306.92 C 324.18 301.90 327.93 297.09 330.92 291.92 C 333.90 286.75 337.59 281.81 340.75 276.75 C 343.92 271.70 346.47 266.82 349.77 261.77 C 353.07 256.72 355.54 250.99 358.92 245.92 C 362.31 240.85 364.72 235.11 367.92 229.92 C 371.13 224.74 373.74 219.08 376.77 213.77 C 379.80 208.46 382.57 202.81 385.31 197.31 C 388.04 191.80 390.51 186.84 393.31 181.31 C 396.10 175.77 398.70 170.00 401.31 164.31 C 403.91 158.61 406.48 152.74 408.92 146.92 C 411.37 141.11 414.15 135.27 416.31 129.31 C 418.46 123.34 421.25 117.32 423.31 111.31 C 425.36 105.29 427.72 99.79 429.78 93.78 C 431.83 87.77 434.13 80.80 435.78 74.78 C 437.43 68.76 440.33 61.17 441.32 55.32 C 442.32 49.47 446.78 40.96 446.78 35.78 C 446.78 30.59 453.22 19.22 450.00 16.00
C 445.85 14.08 442.61 15.75 439.00 17.00 Z" />
    </g>
    <g fill="None" fill-opacity="0.0"  stroke-opacity="0.98" stroke-width="0.3">
        <path
            d="
M 290.00 350.00 
C 295.79 384.24 275.67 416.59 248.00 435.00
C 260.22 441.96 274.69 444.81 289.00 446.00 C 303.31 447.19 319.94 444.00 331.92 437.92 C 343.91 431.85 351.50 425.72 360.75 415.75 C 370.01 405.78 375.70 397.08 381.69 384.69 C 387.69 372.31 367.76 367.80 358.08 361.92 C 348.39 356.04 334.16 350.46 324.00 345.00
C 335.12 341.91 352.57 348.67 364.00 347.00 C 375.43 345.33 394.16 353.28 402.70 346.70 C 411.23 340.12 412.40 327.18 418.70 318.70 C 424.99 310.21 427.21 298.70 432.23 289.23 C 437.25 279.76 440.52 268.81 444.69 258.69 C 448.86 248.58 452.51 236.46 456.07 226.07 C 459.64 215.69 445.98 210.58 439.25 203.75 C 432.52 196.92 423.59 189.89 416.00 184.00
C 424.05 182.94 436.01 190.55 444.33 191.67 C 452.64 192.80 466.59 203.17 470.07 193.07 C 473.55 182.98 474.80 173.48 477.02 163.02 C 479.25 152.56 480.68 141.83 482.00 131.00 C 483.32 120.17 483.15 104.90 483.00 94.00 C 482.85 83.10 480.69 71.44 477.99 62.01 C 475.30 52.58 473.07 42.74 467.75 35.25 C 462.43 27.75 458.35 19.86 450.00 16.00
C 453.22 19.22 446.78 30.59 446.78 35.78 C 446.78 40.96 442.32 49.47 441.32 55.32 C 440.33 61.17 437.43 68.76 435.78 74.78 C 434.13 80.80 431.83 87.77 429.78 93.78 C 427.72 99.79 425.36 105.29 423.31 111.31 C 421.25 117.32 418.46 123.34 416.31 129.31 C 414.15 135.27 411.37 141.11 408.92 146.92 C 406.48 152.74 403.91 158.61 401.31 164.31 C 398.70 170.00 396.10 175.77 393.31 181.31 C 390.51 186.84 388.04 191.80 385.31 197.31 C 382.57 202.81 379.80 208.46 376.77 213.77 C 373.74 219.08 371.13 224.74 367.92 229.92 C 364.72 235.11 362.31 240.85 358.92 245.92 C 355.54 250.99 353.07 256.72 349.77 261.77 C 346.47 266.82 343.92 271.70 340.75 276.75 C 337.59 281.81 333.90 286.75 330.92 291.92 C 327.93 297.09 324.18 301.90 320.92 306.92 C 317.66 311.94 314.49 317.06 310.77 321.77 C 307.05 326.48 304.39 332.11 300.75 336.75 C 297.11 341.39 294.27 346.09 290.00 350.00 Z" />
    </g>
    <g fill="None" fill-opacity="0.0"  stroke-opacity="0.98" stroke-width="0.3">
        <path
            d="
M 244.00 220.00 
C 248.74 233.25 254.86 247.74 259.98 262.02 C 265.09 276.31 246.64 285.42 238.25 296.25 C 229.85 307.08 218.00 317.40 209.00 328.00
C 219.16 324.22 226.99 320.84 237.08 316.08 C 247.16 311.31 255.47 309.57 266.08 304.08 C 276.68 298.58 281.70 313.66 284.00 323.00
C 289.17 318.68 290.68 314.34 294.75 308.75 C 298.82 303.15 299.85 300.85 304.25 294.25 C 308.64 287.65 308.96 287.87 314.23 279.23 C 319.50 270.59 327.22 258.00 332.23 249.23 C 337.23 240.46 337.50 240.23 341.25 233.25 C 344.99 226.26 346.92 224.14 350.08 218.08 C 353.25 212.02 355.58 208.29 358.69 202.70 C 361.81 197.10 364.06 191.54 367.08 186.08 C 370.10 180.61 372.67 175.77 375.22 170.22 C 377.78 164.68 380.37 158.68 383.23 153.23 C 386.09 147.78 388.67 142.67 391.08 137.08 C 393.48 131.48 396.26 126.30 398.70 120.69 C 401.13 115.09 404.14 108.95 406.23 103.23 C 408.32 97.51 411.63 92.32 413.68 86.68 C 415.73 81.04 418.41 75.06 420.69 69.69 C 422.98 64.32 425.64 56.67 427.69 51.69 C 429.75 46.72 433.29 38.38 434.23 34.23 C 435.17 30.08 442.93 19.31 439.00 17.00
C 427.32 21.49 414.96 28.85 405.75 37.75 C 396.54 46.65 386.00 53.54 378.25 64.25 C 370.51 74.97 386.92 93.42 387.00 105.00
C 376.32 104.61 358.52 90.89 349.75 99.75 C 340.98 108.61 334.15 116.21 325.75 124.75 C 317.36 133.30 308.64 140.30 301.25 149.25 C 293.85 158.20 282.15 164.46 276.26 174.26 C 270.37 184.05 288.10 195.84 292.25 204.75 C 296.40 213.66 308.80 223.54 313.00 233.00
C 301.34 227.96 287.60 223.11 276.23 217.77 C 264.85 212.43 250.61 202.96 244.00 220.00 Z" />
    </g>
    <g fill="None" fill-opacity="0.0"  stroke-opacity="0.99" stroke-width="0.3">
        <path
            d="
M 39.00 21.00 
C 42.83 22.35 45.36 31.80 49.25 34.75 C 53.13 37.70 55.64 44.85 59.25 48.75 C 62.87 52.65 65.85 58.32 69.25 62.75 C 72.65 67.19 75.32 72.57 78.75 77.25 C 82.18 81.92 84.91 87.90 88.25 92.75 C 91.60 97.59 93.99 102.97 96.92 108.08 C 99.86 113.18 103.01 118.00 105.77 123.23 C 108.53 128.46 110.95 133.91 113.92 139.08 C 116.90 144.24 119.45 149.59 121.92 155.08 C 124.39 160.57 127.24 166.60 129.92 172.08 C 132.61 177.56 134.56 183.20 137.31 188.69 C 140.05 194.19 141.89 200.01 144.32 205.68 C 146.75 211.34 149.35 216.78 151.32 222.68 C 153.29 228.58 156.10 234.01 157.93 240.07 C 159.75 246.13 163.02 252.09 164.78 258.22 C 166.53 264.36 168.84 270.15 170.78 276.22 C 172.71 282.30 174.70 288.15 176.78 294.22 C 178.85 300.29 179.95 306.87 181.98 313.02 C 184.00 319.18 185.61 325.30 187.33 331.67 C 189.04 338.05 191.27 344.73 192.78 351.22 C 194.29 357.72 196.07 363.78 197.78 370.22 C 199.48 376.66 199.96 383.61 201.98 390.02 C 204.00 396.44 204.33 403.40 206.00 410.00 C 207.67 416.61 208.89 423.14 210.00 430.00 C 211.10 436.87 212.62 444.12 214.00 451.00
C 216.95 452.94 223.09 446.82 226.32 446.32 C 229.55 445.83 234.83 442.67 237.92 440.92 C 241.01 439.17 244.94 437.04 248.00 435.00
C 275.67 416.59 295.79 384.24 290.00 350.00
C 288.42 340.63 287.06 331.94 284.00 323.00
C 281.70 313.66 276.68 298.58 266.08 304.08 C 255.47 309.57 247.16 311.31 237.08 316.08 C 226.99 320.84 219.16 324.22 209.00 328.00
C 218.00 317.40 229.85 307.08 238.25 296.25 C 246.64 285.42 265.09 276.31 259.98 262.02 C 254.86 247.74 248.74 233.25 244.00 220.00
C 229.79 195.34 216.12 169.30 201.00 145.00
C 181.76 145.86 162.20 152.50 144.00 153.00
C 151.48 148.16 163.02 142.01 169.75 136.75 C 176.49 131.50 192.48 125.81 186.75 117.25 C 181.03 108.69 174.37 101.71 168.25 93.75 C 162.12 85.80 155.95 79.38 148.75 72.25 C 141.55 65.11 135.71 58.56 127.75 52.25 C 119.78 45.94 112.31 40.01 103.23 34.77 C 94.14 29.53 85.14 25.55 74.68 22.32 C 64.21 19.10 50.07 17.96 39.00 21.00 Z" />
    </g>
    <g fill="None" fill-opacity="0.0"  stroke-opacity="0.99" stroke-width="0.3">
        <path
            d="
M 32.00 28.00 
C 32.96 35.76 42.48 43.10 45.30 50.70 C 48.13 58.29 54.23 66.62 58.00 74.00
C 65.68 89.02 73.57 103.98 81.00 119.00
C 83.24 123.52 85.94 128.22 88.00 133.00
C 97.32 154.59 107.71 175.31 117.31 196.69 C 126.90 218.08 133.71 242.29 143.00 263.00
C 143.65 264.44 144.39 265.60 145.00 267.00
C 170.00 324.74 180.17 388.06 191.00 450.00
C 191.19 451.08 192.23 452.24 192.00 454.00
C 191.94 454.49 192.00 455.00 192.00 455.00
C 192.59 468.78 195.08 482.06 195.00 496.00
C 199.50 490.11 218.09 491.74 219.00 483.00 C 219.91 474.27 215.75 459.75 214.00 451.00
C 212.62 444.12 211.10 436.87 210.00 430.00 C 208.89 423.14 207.67 416.61 206.00 410.00 C 204.33 403.40 204.00 396.44 201.98 390.02 C 199.96 383.61 199.48 376.66 197.78 370.22 C 196.07 363.78 194.29 357.72 192.78 351.22 C 191.27 344.73 189.04 338.05 187.33 331.67 C 185.61 325.30 184.00 319.18 181.98 313.02 C 179.95 306.87 178.85 300.29 176.78 294.22 C 174.70 288.15 172.71 282.30 170.78 276.22 C 168.84 270.15 166.53 264.36 164.78 258.22 C 163.02 252.09 159.75 246.13 157.93 240.07 C 156.10 234.01 153.29 228.58 151.32 222.68 C 149.35 216.78 146.75 211.34 144.32 205.68 C 141.89 200.01 140.05 194.19 137.31 188.69 C 134.56 183.20 132.61 177.56 129.92 172.08 C 127.24 166.60 124.39 160.57 121.92 155.08 C 119.45 149.59 116.90 144.24 113.92 139.08 C 110.95 133.91 108.53 128.46 105.77 123.23 C 103.01 118.00 99.86 113.18 96.92 108.08 C 93.99 102.97 91.60 97.59 88.25 92.75 C 84.91 87.90 82.18 81.92 78.75 77.25 C 75.32 72.57 72.65 67.19 69.25 62.75 C 65.85 58.32 62.87 52.65 59.25 48.75 C 55.64 44.85 53.13 37.70 49.25 34.75 C 45.36 31.80 42.83 22.35 39.00 21.00
C 33.58 22.49 33.86 23.03 32.00 28.00 Z" />
    </g>
    <g fill="None" fill-opacity="0.0"  stroke-opacity="0.98" stroke-width="0.3">
        <path
            d="
M 182.00 455.00 
C 184.60 454.95 188.63 453.69 192.00 454.00
C 192.23 452.24 191.19 451.08 191.00 450.00
C 186.15 444.91 174.06 445.06 168.30 439.70 C 162.55 434.33 154.72 431.00 149.25 424.75 C 143.77 418.50 138.23 414.16 133.75 407.25 C 129.26 400.35 124.36 394.15 120.25 386.75 C 116.13 379.36 113.68 371.84 110.07 363.93 C 106.47 356.01 104.34 347.18 101.22 338.78 C 98.10 330.37 98.05 320.67 95.01 311.99 C 91.97 303.32 90.82 292.80 100.69 289.69 C 110.57 286.59 113.97 282.04 122.69 278.70 C 131.42 275.35 136.40 270.20 145.00 267.00
C 144.39 265.60 143.65 264.44 143.00 263.00
C 137.66 260.28 127.97 263.92 122.00 262.00 C 116.03 260.09 107.04 262.54 101.00 261.00 C 94.96 259.46 85.77 263.90 81.25 258.75 C 76.74 253.59 79.21 245.41 78.00 239.00 C 76.80 232.59 77.54 225.39 76.00 219.00 C 74.47 212.60 75.34 205.47 74.00 199.00 C 72.66 192.53 72.47 184.60 72.00 178.00 C 71.53 171.40 70.70 164.23 70.00 158.00 C 69.30 151.77 67.26 144.53 73.70 141.70 C 80.13 138.87 81.70 135.08 88.00 133.00
C 85.94 128.22 83.24 123.52 81.00 119.00
C 73.83 113.98 61.71 116.62 59.22 105.78 C 56.73 94.93 59.09 83.99 58.00 74.00
C 54.23 66.62 48.13 58.29 45.30 50.70 C 42.48 43.10 32.96 35.76 32.00 28.00
C 27.31 37.11 26.81 47.28 26.00 58.00 C 25.19 68.72 26.87 82.52 27.02 92.98 C 27.17 103.43 29.45 113.52 39.93 116.07 C 50.41 118.63 56.03 123.03 66.00 126.00
C 59.93 134.42 46.98 134.27 40.75 142.75 C 34.53 151.24 41.06 166.72 41.01 177.99 C 40.95 189.26 44.21 202.80 45.00 215.00 C 45.79 227.20 47.30 240.26 49.00 253.00 C 50.70 265.74 70.09 260.43 81.00 262.00 C 91.91 263.57 108.25 262.61 119.00 265.00
C 109.90 270.01 96.36 273.94 88.08 280.08 C 79.79 286.21 61.36 287.91 62.01 299.99 C 62.65 312.07 67.94 326.05 70.22 337.78 C 72.51 349.51 78.58 360.49 82.68 371.32 C 86.78 382.16 92.56 391.82 98.70 401.30 C 104.83 410.78 111.31 418.33 119.75 426.25 C 128.19 434.17 136.53 439.98 146.92 445.08 C 157.32 450.17 170.21 454.06 182.00 455.00 Z" />
    </g>
    <g fill="None" fill-opacity="0.0"  stroke-opacity="0.98" stroke-width="0.3">
        <path
            d="
M 81.00 119.00 
C 73.57 103.98 65.68 89.02 58.00 74.00
C 59.09 83.99 56.73 94.93 59.22 105.78 C 61.71 116.62 73.83 113.98 81.00 119.00 Z" />
    </g>
    <g fill="None" fill-opacity="0.0"  stroke-opacity="1.00" stroke-width="0.3">
        <path
            d="
M 143.00 263.00 
C 133.71 242.29 126.90 218.08 117.31 196.69 C 107.71 175.31 97.32 154.59 88.00 133.00
C 81.70 135.08 80.13 138.87 73.70 141.70 C 67.26 144.53 69.30 151.77 70.00 158.00 C 70.70 164.23 71.53 171.40 72.00 178.00 C 72.47 184.60 72.66 192.53 74.00 199.00 C 75.34 205.47 74.47 212.60 76.00 219.00 C 77.54 225.39 76.80 232.59 78.00 239.00 C 79.21 245.41 76.74 253.59 81.25 258.75 C 85.77 263.90 94.96 259.46 101.00 261.00 C 107.04 262.54 116.03 260.09 122.00 262.00 C 127.97 263.92 137.66 260.28 143.00 263.00 Z" />
    </g>
    <g fill="None" fill-opacity="0.0"  stroke-opacity="1.00" stroke-width="0.3">
        <path
            d="
M 191.00 450.00 
C 180.17 388.06 170.00 324.74 145.00 267.00
C 136.40 270.20 131.42 275.35 122.69 278.70 C 113.97 282.04 110.57 286.59 100.69 289.69 C 90.82 292.80 91.97 303.32 95.01 311.99 C 98.05 320.67 98.10 330.37 101.22 338.78 C 104.34 347.18 106.47 356.01 110.07 363.93 C 113.68 371.84 116.13 379.36 120.25 386.75 C 124.36 394.15 129.26 400.35 133.75 407.25 C 138.23 414.16 143.77 418.50 149.25 424.75 C 154.72 431.00 162.55 434.33 168.30 439.70 C 174.06 445.06 186.15 444.91 191.00 450.00 Z" />
    </g>
    <g fill="None" fill-opacity="0.0"  stroke-opacity="0.65" stroke-width="0.3">
        <path
            d="
M 182.00 455.00 
C 185.18 455.25 188.83 455.28 192.00 455.00
C 192.00 455.00 191.94 454.49 192.00 454.00
C 188.63 453.69 184.60 454.95 182.00 455.00 Z" />
    </g>
    <g fill-opacity="0.00" stroke="None">
        <path
            d="
M 0.00 512.00 
L 512.00 512.00
L 512.00 0.00
L 0.00 0.00
L 0.00 512.00
M 450.00 16.00 
C 458.35 19.86 462.43 27.75 467.75 35.25 C 473.07 42.74 475.30 52.58 477.99 62.01 C 480.69 71.44 482.85 83.10 483.00 94.00 C 483.15 104.90 483.32 120.17 482.00 131.00 C 480.68 141.83 479.25 152.56 477.02 163.02 C 474.80 173.48 473.55 182.98 470.07 193.07 C 466.59 203.17 452.64 192.80 444.33 191.67 C 436.01 190.55 424.05 182.94 416.00 184.00
C 423.59 189.89 432.52 196.92 439.25 203.75 C 445.98 210.58 459.64 215.69 456.07 226.07 C 452.51 236.46 448.86 248.58 444.69 258.69 C 440.52 268.81 437.25 279.76 432.23 289.23 C 427.21 298.70 424.99 310.21 418.70 318.70 C 412.40 327.18 411.23 340.12 402.70 346.70 C 394.16 353.28 375.43 345.33 364.00 347.00 C 352.57 348.67 335.12 341.91 324.00 345.00
C 334.16 350.46 348.39 356.04 358.08 361.92 C 367.76 367.80 387.69 372.31 381.69 384.69 C 375.70 397.08 370.01 405.78 360.75 415.75 C 351.50 425.72 343.91 431.85 331.92 437.92 C 319.94 444.00 303.31 447.19 289.00 446.00 C 274.69 444.81 260.22 441.96 248.00 435.00
C 244.94 437.04 241.01 439.17 237.92 440.92 C 234.83 442.67 229.55 445.83 226.32 446.32 C 223.09 446.82 216.95 452.94 214.00 451.00
C 215.75 459.75 219.91 474.27 219.00 483.00 C 218.09 491.74 199.50 490.11 195.00 496.00
C 195.08 482.06 192.59 468.78 192.00 455.00
C 188.83 455.28 185.18 455.25 182.00 455.00
C 170.21 454.06 157.32 450.17 146.92 445.08 C 136.53 439.98 128.19 434.17 119.75 426.25 C 111.31 418.33 104.83 410.78 98.70 401.30 C 92.56 391.82 86.78 382.16 82.68 371.32 C 78.58 360.49 72.51 349.51 70.22 337.78 C 67.94 326.05 62.65 312.07 62.01 299.99 C 61.36 287.91 79.79 286.21 88.08 280.08 C 96.36 273.94 109.90 270.01 119.00 265.00
C 108.25 262.61 91.91 263.57 81.00 262.00 C 70.09 260.43 50.70 265.74 49.00 253.00 C 47.30 240.26 45.79 227.20 45.00 215.00 C 44.21 202.80 40.95 189.26 41.01 177.99 C 41.06 166.72 34.53 151.24 40.75 142.75 C 46.98 134.27 59.93 134.42 66.00 126.00
C 56.03 123.03 50.41 118.63 39.93 116.07 C 29.45 113.52 27.17 103.43 27.02 92.98 C 26.87 82.52 25.19 68.72 26.00 58.00 C 26.81 47.28 27.31 37.11 32.00 28.00
C 33.86 23.03 33.58 22.49 39.00 21.00
C 50.07 17.96 64.21 19.10 74.68 22.32 C 85.14 25.55 94.14 29.53 103.23 34.77 C 112.31 40.01 119.78 45.94 127.75 52.25 C 135.71 58.56 141.55 65.11 148.75 72.25 C 155.95 79.38 162.12 85.80 168.25 93.75 C 174.37 101.71 181.03 108.69 186.75 117.25 C 192.48 125.81 176.49 131.50 169.75 136.75 C 163.02 142.01 151.48 148.16 144.00 153.00
C 162.20 152.50 181.76 145.86 201.00 145.00
C 216.12 169.30 229.79 195.34 244.00 220.00
C 250.61 202.96 264.85 212.43 276.23 217.77 C 287.60 223.11 301.34 227.96 313.00 233.00
C 308.80 223.54 296.40 213.66 292.25 204.75 C 288.10 195.84 270.37 184.05 276.26 174.26 C 282.15 164.46 293.85 158.20 301.25 149.25 C 308.64 140.30 317.36 133.30 325.75 124.75 C 334.15 116.21 340.98 108.61 349.75 99.75 C 358.52 90.89 376.32 104.61 387.00 105.00
C 386.92 93.42 370.51 74.97 378.25 64.25 C 386.00 53.54 396.54 46.65 405.75 37.75 C 414.96 28.85 427.32 21.49 439.00 17.00
C 442.61 15.75 445.85 14.08 450.00 16.00 Z" />
    </g>
    <g fill-opacity="0.99" stroke="None">
        <path
            d="
M 439.00 17.00 
C 442.93 19.31 435.17 30.08 434.23 34.23 C 433.29 38.38 429.75 46.72 427.69 51.69 C 425.64 56.67 422.98 64.32 420.69 69.69 C 418.41 75.06 415.73 81.04 413.68 86.68 C 411.63 92.32 408.32 97.51 406.23 103.23 C 404.14 108.95 401.13 115.09 398.70 120.69 C 396.26 126.30 393.48 131.48 391.08 137.08 C 388.67 142.67 386.09 147.78 383.23 153.23 C 380.37 158.68 377.78 164.68 375.22 170.22 C 372.67 175.77 370.10 180.61 367.08 186.08 C 364.06 191.54 361.81 197.10 358.69 202.70 C 355.58 208.29 353.25 212.02 350.08 218.08 C 346.92 224.14 344.99 226.26 341.25 233.25 C 337.50 240.23 337.23 240.46 332.23 249.23 C 327.22 258.00 319.50 270.59 314.23 279.23 C 308.96 287.87 308.64 287.65 304.25 294.25 C 299.85 300.85 298.82 303.15 294.75 308.75 C 290.68 314.34 289.17 318.68 284.00 323.00
C 287.06 331.94 288.42 340.63 290.00 350.00
C 294.27 346.09 297.11 341.39 300.75 336.75 C 304.39 332.11 307.05 326.48 310.77 321.77 C 314.49 317.06 317.66 311.94 320.92 306.92 C 324.18 301.90 327.93 297.09 330.92 291.92 C 333.90 286.75 337.59 281.81 340.75 276.75 C 343.92 271.70 346.47 266.82 349.77 261.77 C 353.07 256.72 355.54 250.99 358.92 245.92 C 362.31 240.85 364.72 235.11 367.92 229.92 C 371.13 224.74 373.74 219.08 376.77 213.77 C 379.80 208.46 382.57 202.81 385.31 197.31 C 388.04 191.80 390.51 186.84 393.31 181.31 C 396.10 175.77 398.70 170.00 401.31 164.31 C 403.91 158.61 406.48 152.74 408.92 146.92 C 411.37 141.11 414.15 135.27 416.31 129.31 C 418.46 123.34 421.25 117.32 423.31 111.31 C 425.36 105.29 427.72 99.79 429.78 93.78 C 431.83 87.77 434.13 80.80 435.78 74.78 C 437.43 68.76 440.33 61.17 441.32 55.32 C 442.32 49.47 446.78 40.96 446.78 35.78 C 446.78 30.59 453.22 19.22 450.00 16.00
C 445.85 14.08 442.61 15.75 439.00 17.00 Z" />
    </g>
    <g fill-opacity="0.98" stroke="None">
        <path
            d="
M 290.00 350.00 
C 295.79 384.24 275.67 416.59 248.00 435.00
C 260.22 441.96 274.69 444.81 289.00 446.00 C 303.31 447.19 319.94 444.00 331.92 437.92 C 343.91 431.85 351.50 425.72 360.75 415.75 C 370.01 405.78 375.70 397.08 381.69 384.69 C 387.69 372.31 367.76 367.80 358.08 361.92 C 348.39 356.04 334.16 350.46 324.00 345.00
C 335.12 341.91 352.57 348.67 364.00 347.00 C 375.43 345.33 394.16 353.28 402.70 346.70 C 411.23 340.12 412.40 327.18 418.70 318.70 C 424.99 310.21 427.21 298.70 432.23 289.23 C 437.25 279.76 440.52 268.81 444.69 258.69 C 448.86 248.58 452.51 236.46 456.07 226.07 C 459.64 215.69 445.98 210.58 439.25 203.75 C 432.52 196.92 423.59 189.89 416.00 184.00
C 424.05 182.94 436.01 190.55 444.33 191.67 C 452.64 192.80 466.59 203.17 470.07 193.07 C 473.55 182.98 474.80 173.48 477.02 163.02 C 479.25 152.56 480.68 141.83 482.00 131.00 C 483.32 120.17 483.15 104.90 483.00 94.00 C 482.85 83.10 480.69 71.44 477.99 62.01 C 475.30 52.58 473.07 42.74 467.75 35.25 C 462.43 27.75 458.35 19.86 450.00 16.00
C 453.22 19.22 446.78 30.59 446.78 35.78 C 446.78 40.96 442.32 49.47 441.32 55.32 C 440.33 61.17 437.43 68.76 435.78 74.78 C 434.13 80.80 431.83 87.77 429.78 93.78 C 427.72 99.79 425.36 105.29 423.31 111.31 C 421.25 117.32 418.46 123.34 416.31 129.31 C 414.15 135.27 411.37 141.11 408.92 146.92 C 406.48 152.74 403.91 158.61 401.31 164.31 C 398.70 170.00 396.10 175.77 393.31 181.31 C 390.51 186.84 388.04 191.80 385.31 197.31 C 382.57 202.81 379.80 208.46 376.77 213.77 C 373.74 219.08 371.13 224.74 367.92 229.92 C 364.72 235.11 362.31 240.85 358.92 245.92 C 355.54 250.99 353.07 256.72 349.77 261.77 C 346.47 266.82 343.92 271.70 340.75 276.75 C 337.59 281.81 333.90 286.75 330.92 291.92 C 327.93 297.09 324.18 301.90 320.92 306.92 C 317.66 311.94 314.49 317.06 310.77 321.77 C 307.05 326.48 304.39 332.11 300.75 336.75 C 297.11 341.39 294.27 346.09 290.00 350.00 Z" />
    </g>
    <g fill-opacity="0.98" stroke="None">
        <path
            d="
M 244.00 220.00 
C 248.74 233.25 254.86 247.74 259.98 262.02 C 265.09 276.31 246.64 285.42 238.25 296.25 C 229.85 307.08 218.00 317.40 209.00 328.00
C 219.16 324.22 226.99 320.84 237.08 316.08 C 247.16 311.31 255.47 309.57 266.08 304.08 C 276.68 298.58 281.70 313.66 284.00 323.00
C 289.17 318.68 290.68 314.34 294.75 308.75 C 298.82 303.15 299.85 300.85 304.25 294.25 C 308.64 287.65 308.96 287.87 314.23 279.23 C 319.50 270.59 327.22 258.00 332.23 249.23 C 337.23 240.46 337.50 240.23 341.25 233.25 C 344.99 226.26 346.92 224.14 350.08 218.08 C 353.25 212.02 355.58 208.29 358.69 202.70 C 361.81 197.10 364.06 191.54 367.08 186.08 C 370.10 180.61 372.67 175.77 375.22 170.22 C 377.78 164.68 380.37 158.68 383.23 153.23 C 386.09 147.78 388.67 142.67 391.08 137.08 C 393.48 131.48 396.26 126.30 398.70 120.69 C 401.13 115.09 404.14 108.95 406.23 103.23 C 408.32 97.51 411.63 92.32 413.68 86.68 C 415.73 81.04 418.41 75.06 420.69 69.69 C 422.98 64.32 425.64 56.67 427.69 51.69 C 429.75 46.72 433.29 38.38 434.23 34.23 C 435.17 30.08 442.93 19.31 439.00 17.00
C 427.32 21.49 414.96 28.85 405.75 37.75 C 396.54 46.65 386.00 53.54 378.25 64.25 C 370.51 74.97 386.92 93.42 387.00 105.00
C 376.32 104.61 358.52 90.89 349.75 99.75 C 340.98 108.61 334.15 116.21 325.75 124.75 C 317.36 133.30 308.64 140.30 301.25 149.25 C 293.85 158.20 282.15 164.46 276.26 174.26 C 270.37 184.05 288.10 195.84 292.25 204.75 C 296.40 213.66 308.80 223.54 313.00 233.00
C 301.34 227.96 287.60 223.11 276.23 217.77 C 264.85 212.43 250.61 202.96 244.00 220.00 Z" />
    </g>
    <g fill-opacity="0.99" stroke="None">
        <path
            d="
M 39.00 21.00 
C 42.83 22.35 45.36 31.80 49.25 34.75 C 53.13 37.70 55.64 44.85 59.25 48.75 C 62.87 52.65 65.85 58.32 69.25 62.75 C 72.65 67.19 75.32 72.57 78.75 77.25 C 82.18 81.92 84.91 87.90 88.25 92.75 C 91.60 97.59 93.99 102.97 96.92 108.08 C 99.86 113.18 103.01 118.00 105.77 123.23 C 108.53 128.46 110.95 133.91 113.92 139.08 C 116.90 144.24 119.45 149.59 121.92 155.08 C 124.39 160.57 127.24 166.60 129.92 172.08 C 132.61 177.56 134.56 183.20 137.31 188.69 C 140.05 194.19 141.89 200.01 144.32 205.68 C 146.75 211.34 149.35 216.78 151.32 222.68 C 153.29 228.58 156.10 234.01 157.93 240.07 C 159.75 246.13 163.02 252.09 164.78 258.22 C 166.53 264.36 168.84 270.15 170.78 276.22 C 172.71 282.30 174.70 288.15 176.78 294.22 C 178.85 300.29 179.95 306.87 181.98 313.02 C 184.00 319.18 185.61 325.30 187.33 331.67 C 189.04 338.05 191.27 344.73 192.78 351.22 C 194.29 357.72 196.07 363.78 197.78 370.22 C 199.48 376.66 199.96 383.61 201.98 390.02 C 204.00 396.44 204.33 403.40 206.00 410.00 C 207.67 416.61 208.89 423.14 210.00 430.00 C 211.10 436.87 212.62 444.12 214.00 451.00
C 216.95 452.94 223.09 446.82 226.32 446.32 C 229.55 445.83 234.83 442.67 237.92 440.92 C 241.01 439.17 244.94 437.04 248.00 435.00
C 275.67 416.59 295.79 384.24 290.00 350.00
C 288.42 340.63 287.06 331.94 284.00 323.00
C 281.70 313.66 276.68 298.58 266.08 304.08 C 255.47 309.57 247.16 311.31 237.08 316.08 C 226.99 320.84 219.16 324.22 209.00 328.00
C 218.00 317.40 229.85 307.08 238.25 296.25 C 246.64 285.42 265.09 276.31 259.98 262.02 C 254.86 247.74 248.74 233.25 244.00 220.00
C 229.79 195.34 216.12 169.30 201.00 145.00
C 181.76 145.86 162.20 152.50 144.00 153.00
C 151.48 148.16 163.02 142.01 169.75 136.75 C 176.49 131.50 192.48 125.81 186.75 117.25 C 181.03 108.69 174.37 101.71 168.25 93.75 C 162.12 85.80 155.95 79.38 148.75 72.25 C 141.55 65.11 135.71 58.56 127.75 52.25 C 119.78 45.94 112.31 40.01 103.23 34.77 C 94.14 29.53 85.14 25.55 74.68 22.32 C 64.21 19.10 50.07 17.96 39.00 21.00 Z" />
    </g>
    <g fill-opacity="0.99" stroke="None">
        <path
            d="
M 32.00 28.00 
C 32.96 35.76 42.48 43.10 45.30 50.70 C 48.13 58.29 54.23 66.62 58.00 74.00
C 65.68 89.02 73.57 103.98 81.00 119.00
C 83.24 123.52 85.94 128.22 88.00 133.00
C 97.32 154.59 107.71 175.31 117.31 196.69 C 126.90 218.08 133.71 242.29 143.00 263.00
C 143.65 264.44 144.39 265.60 145.00 267.00
C 170.00 324.74 180.17 388.06 191.00 450.00
C 191.19 451.08 192.23 452.24 192.00 454.00
C 191.94 454.49 192.00 455.00 192.00 455.00
C 192.59 468.78 195.08 482.06 195.00 496.00
C 199.50 490.11 218.09 491.74 219.00 483.00 C 219.91 474.27 215.75 459.75 214.00 451.00
C 212.62 444.12 211.10 436.87 210.00 430.00 C 208.89 423.14 207.67 416.61 206.00 410.00 C 204.33 403.40 204.00 396.44 201.98 390.02 C 199.96 383.61 199.48 376.66 197.78 370.22 C 196.07 363.78 194.29 357.72 192.78 351.22 C 191.27 344.73 189.04 338.05 187.33 331.67 C 185.61 325.30 184.00 319.18 181.98 313.02 C 179.95 306.87 178.85 300.29 176.78 294.22 C 174.70 288.15 172.71 282.30 170.78 276.22 C 168.84 270.15 166.53 264.36 164.78 258.22 C 163.02 252.09 159.75 246.13 157.93 240.07 C 156.10 234.01 153.29 228.58 151.32 222.68 C 149.35 216.78 146.75 211.34 144.32 205.68 C 141.89 200.01 140.05 194.19 137.31 188.69 C 134.56 183.20 132.61 177.56 129.92 172.08 C 127.24 166.60 124.39 160.57 121.92 155.08 C 119.45 149.59 116.90 144.24 113.92 139.08 C 110.95 133.91 108.53 128.46 105.77 123.23 C 103.01 118.00 99.86 113.18 96.92 108.08 C 93.99 102.97 91.60 97.59 88.25 92.75 C 84.91 87.90 82.18 81.92 78.75 77.25 C 75.32 72.57 72.65 67.19 69.25 62.75 C 65.85 58.32 62.87 52.65 59.25 48.75 C 55.64 44.85 53.13 37.70 49.25 34.75 C 45.36 31.80 42.83 22.35 39.00 21.00
C 33.58 22.49 33.86 23.03 32.00 28.00 Z" />
    </g>
    <g fill-opacity="0.98" stroke="None">
        <path
            d="
M 182.00 455.00 
C 184.60 454.95 188.63 453.69 192.00 454.00
C 192.23 452.24 191.19 451.08 191.00 450.00
C 186.15 444.91 174.06 445.06 168.30 439.70 C 162.55 434.33 154.72 431.00 149.25 424.75 C 143.77 418.50 138.23 414.16 133.75 407.25 C 129.26 400.35 124.36 394.15 120.25 386.75 C 116.13 379.36 113.68 371.84 110.07 363.93 C 106.47 356.01 104.34 347.18 101.22 338.78 C 98.10 330.37 98.05 320.67 95.01 311.99 C 91.97 303.32 90.82 292.80 100.69 289.69 C 110.57 286.59 113.97 282.04 122.69 278.70 C 131.42 275.35 136.40 270.20 145.00 267.00
C 144.39 265.60 143.65 264.44 143.00 263.00
C 137.66 260.28 127.97 263.92 122.00 262.00 C 116.03 260.09 107.04 262.54 101.00 261.00 C 94.96 259.46 85.77 263.90 81.25 258.75 C 76.74 253.59 79.21 245.41 78.00 239.00 C 76.80 232.59 77.54 225.39 76.00 219.00 C 74.47 212.60 75.34 205.47 74.00 199.00 C 72.66 192.53 72.47 184.60 72.00 178.00 C 71.53 171.40 70.70 164.23 70.00 158.00 C 69.30 151.77 67.26 144.53 73.70 141.70 C 80.13 138.87 81.70 135.08 88.00 133.00
C 85.94 128.22 83.24 123.52 81.00 119.00
C 73.83 113.98 61.71 116.62 59.22 105.78 C 56.73 94.93 59.09 83.99 58.00 74.00
C 54.23 66.62 48.13 58.29 45.30 50.70 C 42.48 43.10 32.96 35.76 32.00 28.00
C 27.31 37.11 26.81 47.28 26.00 58.00 C 25.19 68.72 26.87 82.52 27.02 92.98 C 27.17 103.43 29.45 113.52 39.93 116.07 C 50.41 118.63 56.03 123.03 66.00 126.00
C 59.93 134.42 46.98 134.27 40.75 142.75 C 34.53 151.24 41.06 166.72 41.01 177.99 C 40.95 189.26 44.21 202.80 45.00 215.00 C 45.79 227.20 47.30 240.26 49.00 253.00 C 50.70 265.74 70.09 260.43 81.00 262.00 C 91.91 263.57 108.25 262.61 119.00 265.00
C 109.90 270.01 96.36 273.94 88.08 280.08 C 79.79 286.21 61.36 287.91 62.01 299.99 C 62.65 312.07 67.94 326.05 70.22 337.78 C 72.51 349.51 78.58 360.49 82.68 371.32 C 86.78 382.16 92.56 391.82 98.70 401.30 C 104.83 410.78 111.31 418.33 119.75 426.25 C 128.19 434.17 136.53 439.98 146.92 445.08 C 157.32 450.17 170.21 454.06 182.00 455.00 Z" />
    </g>
    <g fill-opacity="0.98" stroke="None">
        <path
            d="
M 81.00 119.00 
C 73.57 103.98 65.68 89.02 58.00 74.00
C 59.09 83.99 56.73 94.93 59.22 105.78 C 61.71 116.62 73.83 113.98 81.00 119.00 Z" />
    </g>
    <g fill-opacity="1.00" stroke="None">
        <path
            d="
M 143.00 263.00 
C 133.71 242.29 126.90 218.08 117.31 196.69 C 107.71 175.31 97.32 154.59 88.00 133.00
C 81.70 135.08 80.13 138.87 73.70 141.70 C 67.26 144.53 69.30 151.77 70.00 158.00 C 70.70 164.23 71.53 171.40 72.00 178.00 C 72.47 184.60 72.66 192.53 74.00 199.00 C 75.34 205.47 74.47 212.60 76.00 219.00 C 77.54 225.39 76.80 232.59 78.00 239.00 C 79.21 245.41 76.74 253.59 81.25 258.75 C 85.77 263.90 94.96 259.46 101.00 261.00 C 107.04 262.54 116.03 260.09 122.00 262.00 C 127.97 263.92 137.66 260.28 143.00 263.00 Z" />
    </g>
    <g fill-opacity="1.00" stroke="None">
        <path
            d="
M 191.00 450.00 
C 180.17 388.06 170.00 324.74 145.00 267.00
C 136.40 270.20 131.42 275.35 122.69 278.70 C 113.97 282.04 110.57 286.59 100.69 289.69 C 90.82 292.80 91.97 303.32 95.01 311.99 C 98.05 320.67 98.10 330.37 101.22 338.78 C 104.34 347.18 106.47 356.01 110.07 363.93 C 113.68 371.84 116.13 379.36 120.25 386.75 C 124.36 394.15 129.26 400.35 133.75 407.25 C 138.23 414.16 143.77 418.50 149.25 424.75 C 154.72 431.00 162.55 434.33 168.30 439.70 C 174.06 445.06 186.15 444.91 191.00 450.00 Z" />
    </g>
    <g fill-opacity="0.65" stroke="None">
        <path
            d="
M 182.00 455.00 
C 185.18 455.25 188.83 455.28 192.00 455.00
C 192.00 455.00 191.94 454.49 192.00 454.00
C 188.63 453.69 184.60 454.95 182.00 455.00 Z" />
    </g>
</svg>